#!OML:ASF H:\Dans Jumps\Project 1\Capture day 1\Session 1\subject.ASF
:FULLY-SPECIFIED
:DEGREES
262
root 0.0248622 22.9254 -4.87265 9.5579 0.725166 -0.490339
lowerback 1.93732 0.0795702 -3.96422
upperback 3.73204 0.0776364 1.16127
thorax 2.75221 -0.0877992 3.42132
lowerneck -9.13036 0.056694 -2.97157
upperneck 22.521 0.12131 2.21488
head 8.49261 0.0302967 1.25872
rclavicle -1.57164e-015 -2.6339e-015
rhumerus -30.1568 -10.9052 -75.3512
rradius 29.9404
rwrist 37.6311
rhand -16.6178 -25.2923
rfingers 7.12502
rthumb 9.60409 -55.0534
lclavicle -1.57164e-015 -2.6339e-015
lhumerus -29.2232 4.61661 68.511
lradius 13.3497
lwrist 1.2118
lhand -19.5699 -4.37741
lfingers 7.12502
lthumb 6.75498 25.4948
rfemur -21.2972 -9.63669 19.1335
rtibia 67.7264
rfoot 19.4854 -3.52152
rtoes 21.3218
lfemur -20.6134 8.19126 -14.2452
ltibia 50.6297
lfoot 24.7065 -3.09922
ltoes 2.93585
263
root 0.0251297 23.032 -4.71388 9.93875 0.657477 -0.431319
lowerback 1.97433 0.0534277 -4.10855
upperback 3.80244 0.040921 1.21446
thorax 2.80883 -0.113565 3.55782
lowerneck -9.25675 0.107657 -2.88075
upperneck 22.6657 0.247007 1.91054
head 8.56314 0.0661984 1.15512
rclavicle -6.13126e-015 -6.03808e-015
rhumerus -30.0614 -11.1961 -75.5238
rradius 29.5309
rwrist 38.0396
rhand -16.5607 -25.2914
rfingers 7.12502
rthumb 9.65925 -55.0499
lclavicle -6.13126e-015 -6.03808e-015
lhumerus -29.2981 5.80588 68.4302
lradius 12.987
lwrist -0.00774441
lhand -19.3316 -4.38423
lfingers 7.12502
lthumb 6.98505 25.4805
rfemur -23.1527 -9.75225 19.5352
rtibia 67.9048
rfoot 18.1525 -3.37168
rtoes 20.5224
lfemur -21.5731 8.12773 -14.6224
ltibia 48.8546
lfoot 23.211 -2.92931
ltoes 2.31496
264
root 0.0270141 23.1236 -4.55234 10.2947 0.686491 -0.433722
lowerback 2.02494 0.00118977 -4.15675
upperback 3.87544 -0.0314723 1.28958
thorax 2.86364 -0.154952 3.66274
lowerneck -9.34033 0.168415 -2.77598
upperneck 22.7269 0.377837 1.63027
head 8.59769 0.108071 1.05682
rclavicle 4.03781e-015 6.26172e-015
rhumerus -30.0177 -11.542 -75.6417
rradius 29.2108
rwrist 38.3946
rhand -16.5014 -25.3027
rfingers 7.12502
rthumb 9.7164 -55.0586
lclavicle 4.03781e-015 6.26172e-015
lhumerus -29.3944 6.94586 68.3487
lradius 12.7115
lwrist -1.06045
lhand -19.2201 -4.48212
lfingers 7.12502
lthumb 7.09273 25.379
rfemur -24.8151 -9.91624 20.011
rtibia 67.5894
rfoot 17 -3.15207
rtoes 19.8279
lfemur -22.427 8.01277 -14.9175
ltibia 46.8492
lfoot 21.8697 -2.86515
ltoes 1.53993
265
root 0.0307108 23.2004 -4.38713 10.579 0.807222 -0.492658
lowerback 2.13594 -0.0703422 -4.10545
upperback 3.96324 -0.13204 1.38093
thorax 2.9021 -0.207768 3.72836
lowerneck -9.39532 0.226868 -2.68975
upperneck 22.7245 0.493359 1.4152
head 8.60566 0.147929 0.981491
rclavicle 3.6154e-015 4.22417e-015
rhumerus -30.0256 -11.916 -75.716
rradius 28.9744
rwrist 38.6688
rhand -16.4368 -25.3115
rfingers 7.12502
rthumb 9.77871 -55.0645
lclavicle 3.6154e-015 4.22417e-015
lhumerus -29.5019 7.97237 68.291
lradius 12.535
lwrist -1.78762
lhand -19.2347 -4.60099
lfingers 7.12502
lthumb 7.0786 25.2606
rfemur -26.2283 -10.1437 20.5334
rtibia 66.8191
rfoot 16.0131 -2.81681
rtoes 19.2031
lfemur -23.1375 7.86897 -15.1312
ltibia 44.6798
lfoot 20.7654 -2.94504
ltoes 0.689313
266
root 0.0359547 23.2623 -4.21813 10.767 1.00666 -0.590666
lowerback 2.33283 -0.153236 -3.97245
upperback 4.06965 -0.250598 1.4798
thorax 2.91263 -0.266973 3.75598
lowerneck -9.44516 0.277947 -2.62209
upperneck 22.6962 0.585344 1.27233
head 8.60421 0.18257 0.931106
rclavicle -6.26172e-015 1.25234e-014
rhumerus -30.0926 -12.2574 -75.7659
rradius 28.8247
rwrist 38.8401
rhand -16.3658 -25.3251
rfingers 7.12502
rthumb 9.84725 -55.0748
lclavicle -6.26172e-015 1.25234e-014
lhumerus -29.6048 8.78743 68.2931
lradius 12.4523
lwrist -2.0619
lhand -19.3595 -4.75998
lfingers 7.12502
lthumb 6.95808 25.1057
rfemur -27.3745 -10.4387 21.0718
rtibia 65.6488
rfoot 15.1752 -2.36449
rtoes 18.5901
lfemur -23.6943 7.71406 -15.2815
ltibia 42.4077
lfoot 19.9718 -3.1365
ltoes -0.0358493
267
root 0.0422335 23.3097 -4.0458 10.8629 1.25457 -0.720832
lowerback 2.62084 -0.236446 -3.77576
upperback 4.18262 -0.371858 1.58292
thorax 2.87813 -0.324747 3.75287
lowerneck -9.50481 0.313282 -2.58344
upperneck 22.6816 0.64388 1.2048
head 8.60955 0.206574 0.907837
rclavicle 5.56597e-015 -2.48481e-015
rhumerus -30.2228 -12.5158 -75.8003
rradius 28.7359
rwrist 38.927
rhand -16.305 -25.3143
rfingers 7.12502
rthumb 9.90589 -55.0612
lclavicle 5.56597e-015 -2.48481e-015
lhumerus -29.7016 9.30942 68.3861
lradius 12.4754
lwrist -1.77688
lhand -19.4716 -4.79651
lfingers 7.12502
lthumb 6.84992 25.0727
rfemur -28.2795 -10.7765 21.6149
rtibia 64.1391
rfoot 14.4765 -1.85574
rtoes 17.9509
lfemur -24.1237 7.57134 -15.3807
ltibia 40.0922
lfoot 19.5102 -3.39911
ltoes -0.532005
268
root 0.0490175 23.3437 -3.86992 10.8819 1.53597 -0.853078
lowerback 2.97946 -0.318175 -3.55614
upperback 4.29838 -0.491736 1.68189
thorax 2.80614 -0.380262 3.7337
lowerneck -9.59654 0.333382 -2.56478
upperneck 22.7082 0.672403 1.19659
head 8.63516 0.220536 0.9054
rclavicle 7.97623e-015 -7.35503e-015
rhumerus -30.407 -12.633 -75.8385
rradius 28.6953
rwrist 38.9404
rhand -16.2409 -25.3123
rfingers 7.12502
rthumb 9.96777 -55.0563
lclavicle 7.97623e-015 -7.35503e-015
lhumerus -29.7829 9.52921 68.5671
lradius 12.5849
lwrist -1.03136
lhand -19.535 -4.72751
lfingers 7.12502
lthumb 6.78874 25.1437
rfemur -28.9732 -11.1467 22.1279
rtibia 62.3481
rfoot 13.9155 -1.35295
rtoes 17.2458
lfemur -24.4568 7.43568 -15.4639
ltibia 37.7823
lfoot 19.3395 -3.68343
ltoes -0.768323
